<svg width="31" height="18" viewBox="0 0 31 18" fill="none" xmlns="http://www.w3.org/2000/svg">
<path d="M4.69318 17.3068C3.86364 17.3068 3.1108 17.1506 2.43466 16.8381C1.75852 16.5199 1.22159 16.0625 0.823864 15.4659C0.426136 14.8636 0.227273 14.1364 0.227273 13.2841C0.227273 12.5341 0.375 11.9261 0.670455 11.4602C0.965909 10.9886 1.3608 10.6193 1.85511 10.3523C2.34943 10.0852 2.89489 9.88636 3.49148 9.75568C4.09375 9.61932 4.69886 9.51136 5.30682 9.43182C6.10227 9.32955 6.74716 9.25284 7.24148 9.2017C7.74148 9.14489 8.10511 9.05114 8.33239 8.92045C8.56534 8.78977 8.68182 8.5625 8.68182 8.23864V8.17045C8.68182 7.32955 8.4517 6.67614 7.99148 6.21023C7.53693 5.74432 6.84659 5.51136 5.92045 5.51136C4.96023 5.51136 4.20739 5.72159 3.66193 6.14205C3.11648 6.5625 2.73295 7.01136 2.51136 7.48864L0.602273 6.80682C0.943182 6.01136 1.39773 5.39205 1.96591 4.94886C2.53977 4.5 3.16477 4.1875 3.84091 4.01136C4.52273 3.82955 5.19318 3.73864 5.85227 3.73864C6.27273 3.73864 6.75568 3.78977 7.30114 3.89204C7.85227 3.98864 8.38352 4.19034 8.89489 4.49716C9.41193 4.80398 9.84091 5.26705 10.1818 5.88636C10.5227 6.50568 10.6932 7.33523 10.6932 8.375V17H8.68182V15.2273H8.57955C8.44318 15.5114 8.21591 15.8153 7.89773 16.1392C7.57955 16.4631 7.15625 16.7386 6.62784 16.9659C6.09943 17.1932 5.45455 17.3068 4.69318 17.3068ZM5 15.5C5.79545 15.5 6.46591 15.3438 7.01136 15.0312C7.5625 14.7188 7.97727 14.3153 8.25568 13.821C8.53977 13.3267 8.68182 12.8068 8.68182 12.2614V10.4205C8.59659 10.5227 8.40909 10.6165 8.11932 10.7017C7.83523 10.7812 7.50568 10.8523 7.13068 10.9148C6.76136 10.9716 6.40057 11.0227 6.0483 11.0682C5.7017 11.108 5.42045 11.142 5.20455 11.1705C4.68182 11.2386 4.19318 11.3494 3.73864 11.5028C3.28977 11.6506 2.92614 11.875 2.64773 12.1761C2.375 12.4716 2.23864 12.875 2.23864 13.3864C2.23864 14.0852 2.49716 14.6136 3.0142 14.9716C3.53693 15.3239 4.19886 15.5 5 15.5ZM20.0575 3.90909V5.61364H13.2734V3.90909H20.0575ZM15.2507 0.772727H17.2621V13.25C17.2621 13.8182 17.3445 14.2443 17.5092 14.5284C17.6797 14.8068 17.8956 14.9943 18.157 15.0909C18.424 15.1818 18.7053 15.2273 19.0007 15.2273C19.2223 15.2273 19.4041 15.2159 19.5462 15.1932C19.6882 15.1648 19.8018 15.142 19.8871 15.125L20.2962 16.9318C20.1598 16.983 19.9695 17.0341 19.7251 17.0852C19.4808 17.142 19.1712 17.1705 18.7962 17.1705C18.228 17.1705 17.6712 17.0483 17.1257 16.804C16.5859 16.5597 16.1371 16.1875 15.7791 15.6875C15.4268 15.1875 15.2507 14.5568 15.2507 13.7955V0.772727ZM30.1143 8.57955V10.4545H22.478V8.57955H30.1143Z" fill="#333153"/>
</svg>
