<svg width="59" height="19" viewBox="0 0 59 19" fill="none" xmlns="http://www.w3.org/2000/svg">
<path d="M4.03125 18L0.46875 4.90909H4.14205L6.17045 13.7045H6.28977L8.40341 4.90909H12.0085L14.1562 13.6534H14.267L16.2614 4.90909H19.9261L16.3722 18H12.5284L10.2784 9.76705H10.1165L7.86648 18H4.03125ZM27.4496 18.2557C26.1257 18.2557 24.9808 17.9744 24.0149 17.4119C23.0547 16.8437 22.3132 16.054 21.7905 15.0426C21.2678 14.0256 21.0064 12.8466 21.0064 11.5057C21.0064 10.1534 21.2678 8.97159 21.7905 7.96023C22.3132 6.94318 23.0547 6.15341 24.0149 5.59091C24.9808 5.02273 26.1257 4.73864 27.4496 4.73864C28.7734 4.73864 29.9155 5.02273 30.8757 5.59091C31.8416 6.15341 32.5859 6.94318 33.1087 7.96023C33.6314 8.97159 33.8928 10.1534 33.8928 11.5057C33.8928 12.8466 33.6314 14.0256 33.1087 15.0426C32.5859 16.054 31.8416 16.8437 30.8757 17.4119C29.9155 17.9744 28.7734 18.2557 27.4496 18.2557ZM27.4666 15.4432C28.0689 15.4432 28.5717 15.2727 28.9751 14.9318C29.3786 14.5852 29.6825 14.1136 29.8871 13.517C30.0973 12.9205 30.2024 12.2415 30.2024 11.4801C30.2024 10.7188 30.0973 10.0398 29.8871 9.44318C29.6825 8.84659 29.3786 8.375 28.9751 8.02841C28.5717 7.68182 28.0689 7.50852 27.4666 7.50852C26.8587 7.50852 26.3473 7.68182 25.9325 8.02841C25.5234 8.375 25.2138 8.84659 25.0036 9.44318C24.799 10.0398 24.6967 10.7188 24.6967 11.4801C24.6967 12.2415 24.799 12.9205 25.0036 13.517C25.2138 14.1136 25.5234 14.5852 25.9325 14.9318C26.3473 15.2727 26.8587 15.4432 27.4666 15.4432ZM36.2536 18V4.90909H39.7734V7.19318H39.9098C40.1484 6.38068 40.549 5.76705 41.1115 5.35227C41.674 4.93182 42.3217 4.72159 43.0547 4.72159C43.2365 4.72159 43.4325 4.73295 43.6428 4.75568C43.853 4.77841 44.0376 4.80966 44.1967 4.84943V8.07102C44.0263 8.01989 43.7905 7.97443 43.4893 7.93466C43.1882 7.89489 42.9126 7.875 42.6626 7.875C42.1286 7.875 41.6513 7.99148 41.2308 8.22443C40.8161 8.4517 40.4865 8.76989 40.2422 9.17898C40.0036 9.58807 39.8842 10.0597 39.8842 10.5938V18H36.2536ZM49.3636 14.233L49.3722 9.87784H49.9006L54.0938 4.90909H58.2614L52.6278 11.4886H51.767L49.3636 14.233ZM46.0739 18V0.545454H49.7045V18H46.0739ZM54.2557 18L50.4034 12.2983L52.8239 9.73295L58.5085 18H54.2557Z" fill="#333153"/>
</svg>
